<svg xmlns="http://www.w3.org/2000/svg" width="20" height="20" fill="none" aria-label="pinterest"><g><path d="M10 0C4.477 0 0 4.477 0 10c0 4.239 2.634 7.86 6.354 9.317-.09-.79-.165-2.008.033-2.873.18-.781 1.169-4.97 1.169-4.97s-.297-.602-.297-1.482c0-1.391.807-2.428 1.811-2.428.856 0 1.267.642 1.267 1.407 0 .856-.543 2.14-.83 3.334-.24.995.501 1.81 1.48 1.81 1.778 0 3.145-1.876 3.145-4.576 0-2.395-1.72-4.066-4.181-4.066-2.848 0-4.519 2.132-4.519 4.338 0 .856.33 1.777.74 2.28.083.098.091.189.067.288-.074.312-.247.995-.28 1.135-.041.181-.148.223-.338.132-1.25-.584-2.033-2.403-2.033-3.876 0-3.153 2.289-6.05 6.61-6.05 3.465 0 6.164 2.47 6.164 5.778 0 3.449-2.173 6.222-5.185 6.222-1.012 0-1.967-.527-2.288-1.152l-.626 2.379c-.222.872-.83 1.958-1.242 2.625.938.288 1.926.445 2.963.445 5.522 0 10-4.478 10-10A9.98 9.98 0 0010 0z" fill="#7E7E7E"/></g><defs><clipPath id="clip0"><path fill="#fff" d="M0 0h20v20H0z"/></clipPath></defs></svg>