<svg xmlns="http://www.w3.org/2000/svg" width="21" height="20" viewBox="0 0 21 20" fill="none" aria-label="snapchat"><path id="social_snapchat" d="M20.6786 15.4311C17.1293 13.713 16.5636 11.0602 16.5384 10.8635C16.508 10.6251 16.4734 10.4377 16.7363 10.1953C16.9899 9.96106 18.1148 9.26478 18.427 9.04694C18.9429 8.68621 19.1701 8.32606 19.0026 7.88335C18.8855 7.57708 18.6003 7.46172 18.2999 7.46172C18.2051 7.46201 18.1107 7.47261 18.0182 7.49334C17.4514 7.61631 16.9009 7.90033 16.5823 7.97704C16.544 7.98691 16.5047 7.99222 16.4652 7.99286C16.2954 7.99286 16.231 7.91731 16.2474 7.71294C16.2872 7.09337 16.3715 5.88411 16.2737 4.75449C16.1396 3.2003 15.6383 2.43024 15.044 1.74919C14.7564 1.41891 13.4213 0 10.8446 0C8.26798 0 6.93457 1.41891 6.64879 1.74509C6.05265 2.42614 5.55197 3.19621 5.41903 4.75039C5.32124 5.88001 5.40908 7.08869 5.44539 7.70884C5.4571 7.90326 5.39737 7.98876 5.22754 7.98876C5.18802 7.98808 5.14871 7.98277 5.11042 7.97294C4.79244 7.89623 4.24198 7.61221 3.67512 7.48924C3.58265 7.46851 3.4882 7.45791 3.39344 7.45762C3.09186 7.45762 2.80784 7.57474 2.69072 7.87925C2.52324 8.32196 2.74928 8.68211 3.26695 9.04284C3.57908 9.26068 4.70402 9.95637 4.95758 10.1912C5.21993 10.4336 5.18597 10.621 5.15551 10.8594C5.13033 11.0591 4.56406 13.7118 1.01532 15.427C0.807434 15.5278 0.453731 15.7409 1.0774 16.0853C2.05652 16.6264 2.70829 16.5684 3.21484 16.8946C3.64467 17.1715 3.39052 17.7689 3.70323 17.9844C4.08738 18.2496 5.22286 17.9656 6.68979 18.4499C7.91955 18.8552 8.66677 20 10.8475 20C13.0283 20 13.7972 18.8499 15.0053 18.4499C16.4693 17.9656 17.6071 18.2496 17.9919 17.9844C18.304 17.7689 18.0504 17.1715 18.4803 16.8946C18.9868 16.5684 19.638 16.6264 20.6177 16.0853C21.2402 15.745 20.8865 15.5319 20.6786 15.4311Z" fill="#7E7E7E"/></svg>