<svg xmlns="http://www.w3.org/2000/svg" alt-text="History icon" data-testid="history-icon" width="20" height="20" fill="none" viewBox="0 0 20 20"><path fill="#000" d="M13 14.043c-.14 0-.28-.04-.38-.12l-3.3-2.2a.696.696 0 01-.32-.58v-4.4c0-.24.14-.48.34-.6.1-.06.22-.1.36-.1.12 0 .24.04.36.1.22.12.36.36.36.6v4.02l2.98 2c.16.1.26.26.3.44.04.18 0 .38-.1.52-.1.16-.26.26-.44.3-.06.02-.12.02-.16.02z"/><path fill="#000" d="M10 19.383c-2.16 0-4.26-.76-5.94-2.12a9.38 9.38 0 01-3.4-6.16c-.02-.22.06-.42.24-.56.1-.08.22-.12.36-.12.08 0 .16.02.24.04.2.08.34.26.36.48a8.24 8.24 0 002.6 5.06 8.142 8.142 0 005.26 2.14H10c1.86 0 3.68-.64 5.12-1.8a8.21 8.21 0 002.92-4.88c.36-1.92.02-3.9-.96-5.6a8.07 8.07 0 00-4.38-3.62c-.88-.3-1.78-.46-2.72-.46-1.02 0-2.02.18-2.96.56-1.82.74-3.34 2.08-4.26 3.8l-.16.3h2.84c.1 0 .22.02.34.1.18.12.28.3.28.5s-.1.38-.28.5c-.12.08-.24.1-.34.1H2.26c-.44 0-.86-.18-1.18-.48-.3-.32-.48-.74-.48-1.2v-3.18c0-.1.02-.22.1-.34.12-.18.3-.28.5-.28s.38.1.5.28c.08.12.1.24.1.34v2.6l.36-.56c.84-1.3 2.02-2.38 3.38-3.12A9.32 9.32 0 019.98.583H10c2.44 0 4.76.94 6.52 2.62a9.335 9.335 0 012.88 6.4 9.38 9.38 0 01-2.36 6.62 9.455 9.455 0 01-6.28 3.12c-.26.02-.5.04-.76.04z"/></svg>