<svg xmlns="http://www.w3.org/2000/svg" width="29" height="20" viewBox="0 0 29 20" fill="none" aria-label="youtube"><path id="Vector" d="M28.1308 3.12324C27.8016 1.89323 26.835 0.926623 25.605 0.597366C23.3754 0 14.4408 0 14.4408 0C14.4408 0 5.50618 0 3.279 0.597366C2.04899 0.926623 1.08238 1.89323 0.753128 3.12324C0.155762 5.35042 0.155762 10 0.155762 10C0.155762 10 0.155762 14.6496 0.753128 16.8768C1.08238 18.1068 2.04899 19.0734 3.279 19.4026C5.50618 20 14.4408 20 14.4408 20C14.4408 20 23.3754 20 25.6026 19.4026C26.8326 19.0734 27.7992 18.1068 28.1285 16.8768C28.7258 14.6496 28.7258 10 28.7258 10C28.7258 10 28.7258 5.35042 28.1308 3.12324Z" fill="#7E7E7E"/><path id="Vector_2" d="M11.5835 14.2849V5.71484L19.0082 9.99989L11.5835 14.2849Z" fill="black"/></svg>